<?xml version="1.0" encoding="utf-8"?>
<!-- Generator: Adobe Illustrator 19.0.0, SVG Export Plug-In . SVG Version: 6.00 Build 0)  -->
<svg version="1.1" id="Calque_1" xmlns="http://www.w3.org/2000/svg" xmlns:xlink="http://www.w3.org/1999/xlink" x="0px" y="0px"
	 viewBox="-953 1340.7 492 521.3" style="enable-background:new -953 1340.7 492 521.3;" xml:space="preserve">
<g id="XMLID_39_">
	<path id="XMLID_50_" fill="#373B60" d="M-588.8,1520.8l-106.8-61.4c-6.8-3.9-15.2-3.9-22.1,0l-71.3,41c-0.4,0.3-0.4,0.9,0.1,1.1
		c19.5,5.3,31.2,12.9,35.9,23.2c6.7,15-3,31.7-11.6,46.5c-6.1,10.5-12.3,21.3-9.8,27.4c5.2,12.8,35.1,21.1,52,24.4
		c0.3,0,0.5-0.1,0.6-0.3c0.5-1.1,1-1.8,1.1-2c0-0.1,0.1-0.1,0.1-0.2l7.9-39.4c0.1-0.3-0.2-0.7-0.5-0.7c-3.3-0.3-18.5-1.7-23.8,0
		c-6.1,1.9-20.2,14.2-21.6,15.4c-0.1,0.1-0.1,0.1-0.2,0.2l-3.7,10.3c-0.2,0.6-1,0.5-1.1-0.1l-2.4-12.7c-0.2-1.3,0.2-2.6,1.2-3.5
		c4.7-4.4,18.9-17.2,25.4-20.4c7.6-3.7,25-4.9,32.9-7.8c3.2-1.2,8.7-5.3,10.8-7.8c0.5-0.6,1.2-1.9,1.2-2.6c0.4-2.8-1.7-8.9-0.3-11.4
		c2.2-3.6,11-7.1,15.3-8.1c4-0.9,12.7-0.8,16.5,0.7c1.4,0.5,3.9,2.2,5.1,3.8l0,0c0,0,0,0.1,0.1,0.1c0,0.1,0.1,0.1,0.1,0.2
		c1.9,2.7-0.7,8.8,0.1,10.9c1.7,4.5,9.4,4.2,8.5,10.4c0,0.1,0,0.2-0.1,0.3l0,0c0,0,0,0.1,0,0.2v0.1c0,0.1,0,0.3,0,0.3l0,0
		c-0.3,1.7-0.7,3.2-1.4,4.4c-0.7,1.8-1.6,3.4-2.5,4.3c-2.6,2.8-10.3,5.6-14.3,5.5c-1.5,0-5.4-2.1-5.4-2.1c-1-0.4-2.1,0.3-2.2,1.3
		c0,0-0.1,2.5-0.3,6c0,0.3,0.1,0.5,0.4,0.6c3.1,1.1,6.8,2.3,8.6,2.2c9.4-0.6,33.7-15.1,35.1-15.9l0.1-0.1l7.5-7.8
		c0.6-0.6,1.7,0,1.4,0.8l-3.8,11.7c-0.3,0.8-0.7,1.4-1.4,1.9c-5.3,3.9-29.4,21.4-39.5,25.5c-1.8,0.7-6.1-0.2-9.4-1.1
		c-0.3-0.1-0.7,0.1-0.7,0.5c-0.1,0.7-0.2,1.3-0.3,1.8c-0.5,2.1-2.1,6.1-3.3,7.9c-2.9,4.7-14.1,16.6-14.9,17.5l-0.1,0.1
		c-1.6,3-2.4,9.3-1.1,11.5c3.1,5.4,10.3,5.9,16.6,9.3c5.1,2.7,17.2,6.5,17.6,12.1c0.6,7.6-13.3,26.3-15.5,29.2
		c-0.2,0.2-0.2,0.5,0,0.7l7.6,8.7c0.7,0.9-0.3,2-1.3,1.7l-19.4-6.3c-1.8-0.6-2.7-2.6-1.8-4.3l11.5-22.4c0.3-0.6,0-1.5-0.6-1.5
		c-7.1,0.3-17,0.5-22.4-1.7c-1.1-0.5-2.2-0.9-3.2-1.4c-0.3-0.1-0.6,0-0.7,0.2c-0.4,0.6-0.9,1.2-1.5,1.8c-3.4,3.5-8.3,8.6-13.2,10.5
		c-9,3.5-37.2-11.2-41.6-13.2c-0.4-0.2-1-0.1-1.3,0.1l-9.8,8.6c-0.7,0.5-1.6-0.2-1.3-1l8.1-22.2c0.1-0.3,0.5-0.5,0.8-0.3l33.7,14
		c0.3,0.1,0.7-0.1,0.8-0.4c1.4-8.3,6.2-20.4,8.6-26c0.1-0.3-0.1-0.7-0.4-0.8c-5.3-1.1-12.5-2.8-20-5.2
		c-20.3-6.4-32.6-14.4-36.4-23.9c-4-9.9,2.9-22,10.4-34.7c8-13.7,16.2-27.9,11.2-38.9c-4.1-9.2-17.6-16.2-40-20.9
		c-0.1,0-0.3,0-0.4,0.1l-23.6,13.6c-6.9,3.9-11.1,11.3-11.1,19.2v122.6c0,7.9,4.3,15.2,11.1,19.2l106.8,61.4
		c6.8,3.9,15.2,3.9,22.1,0l106.8-61.4c6.9-3.9,11.1-11.3,11.1-19.2V1540C-577.8,1532.1-582,1524.7-588.8,1520.8z"/>
</g>
</svg>
